<svg xmlns="http://www.w3.org/2000/svg" viewBox="0 0 400 300"><g id="_338_idea_applications_flatline" data-name="#338_idea_applications_flatline"><path d="M164.76,205.8c-9.65,0-18.85,1.14-25.94-2.16a4,4,0,0,1,3.37-7.26c14.25,6.62,39.44,6.49,55.29-5.29,10.59-7.86,14.91-19.23,12.83-33.79q-.44-3-.84-5.79c-4.53-31-6.23-42.6,26.89-56.68,21-8.94,77-19.26,79.37-19.48a4,4,0,0,1,.74,8c-.57.05-57.1,7.41-77,15.87-27.44,11.67-28.52,21-24.1,51.17q.41,2.77.84,5.81c3.15,22-4.95,31.65-14,38.35C191.65,202.39,177.79,205.8,164.76,205.8Z" fill="#fff"/><path d="M153.31,206.49c-5.38,0-10.41-.41-14.7-2.4a4.5,4.5,0,1,1,3.79-8.16c14.12,6.56,39.08,6.42,54.79-5.24,10.43-7.74,14.68-19,12.63-33.32q-.44-3-.84-5.78c-4.58-31.28-6.29-43,27.19-57.22C257.73,85.2,313.76,75,315.68,74.85a4.5,4.5,0,0,1,.84,9c-.52.05-57.09,7.43-76.83,15.83C213,111,211.36,119.37,215.88,150.29l0,.1c.27,1.82.54,3.72.83,5.71,3.21,22.54-5.36,32.27-14.18,38.82-9.88,7.34-23.31,11.38-37.79,11.38-2,0-4,0-5.92.1S155.12,206.49,153.31,206.49Zm-12.8-10a3.51,3.51,0,0,0-3.18,2,3.51,3.51,0,0,0,1.7,4.65c5.52,2.57,12.45,2.4,19.79,2.22,1.93-.05,3.93-.1,5.94-.1,14.27,0,27.48-4,37.2-11.18,8.57-6.37,16.92-15.86,13.78-37.88-.29-2-.56-3.88-.83-5.71l0-.1c-4.53-31-2.73-40.16,24.41-51.7,20-8.51,76.61-15.86,77.12-15.91a3.5,3.5,0,1,0-.65-7c-1.85.17-58.29,10.53-79.21,19.44-32.77,13.93-31.09,25.43-26.59,56.15q.41,2.77.84,5.79c2.1,14.75-2.28,26.28-13,34.27-16,11.88-41.42,12-55.8,5.33A3.51,3.51,0,0,0,140.51,196.51Z" fill="#231f20"/><path d="M291.87,87.24s17.17,5.35,21.62,1.2S322.41,76,322.41,76s5.78,6.82,5.19,7.71-12.25,21.46-25.29,19.09-18.6,0-18.6,0Z" fill="#333333"/><polygon points="324.2 60.34 309.24 69.71 310.57 91.61 326.55 99.12 345.55 97.97 343.2 59.18 324.2 60.34" fill="#fff"/><path d="M326.55,99.62a.54.54,0,0,1-.22-.05l-16-7.5a.5.5,0,0,1-.29-.43l-1.33-21.9a.5.5,0,0,1,.24-.45l14.95-9.38a.48.48,0,0,1,.24-.07l19-1.16a.5.5,0,0,1,.53.47l2.35,38.79a.5.5,0,0,1-.47.53l-19,1.15Zm-15.5-8.33,15.59,7.32L345,97.5l-2.29-37.79-18.39,1.12L309.76,70Z" fill="#231f20"/><path d="M343.64,64h12.72a2.11,2.11,0,0,1,2.11,2.11v0a2.11,2.11,0,0,1-2.11,2.11H343.64a0,0,0,0,1,0,0V64A0,0,0,0,1,343.64,64Z" transform="translate(-3.35 21.35) rotate(-3.47)" fill="#231f20"/><path d="M343.78,69.08a.44.44,0,0,1-.29-.11.4.4,0,0,1-.15-.3l-.26-4.21a.44.44,0,0,1,.42-.47l12.69-.77a2.55,2.55,0,1,1,.31,5.09l-12.7.77Zm.21-4.24.2,3.33,12.26-.74h0a1.63,1.63,0,0,0,1.15-.56,1.65,1.65,0,0,0,.41-1.2,1.68,1.68,0,0,0-1.76-1.57Z" fill="#231f20"/><path d="M345.1,88.06h12.72a2.11,2.11,0,0,1,2.11,2.11v0a2.11,2.11,0,0,1-2.11,2.11H345.1a0,0,0,0,1,0,0V88.06A0,0,0,0,1,345.1,88.06Z" transform="translate(-4.81 21.48) rotate(-3.47)" fill="#231f20"/><path d="M345.24,93.16a.48.48,0,0,1-.3-.11.44.44,0,0,1-.14-.3l-.26-4.21a.44.44,0,0,1,.42-.47l12.69-.77a2.55,2.55,0,1,1,.31,5.09l-12.7.77Zm.21-4.24.2,3.33,12.26-.74h0a1.68,1.68,0,0,0,1.56-1.76,1.66,1.66,0,0,0-1.77-1.57Z" fill="#231f20"/><rect x="295.59" y="74.74" width="14.33" height="12.71" transform="translate(-4.35 18.46) rotate(-3.47)" fill="#fff"/><path d="M296,88.37a.5.5,0,0,1-.33-.12.51.51,0,0,1-.17-.35l-.77-12.68a.51.51,0,0,1,.47-.53l14.31-.87a.51.51,0,0,1,.53.47L310.79,87a.52.52,0,0,1-.47.53L296,88.37Zm-.24-12.71.71,11.68,13.31-.8-.71-11.69Z" fill="#231f20"/><circle cx="327.39" cy="79.6" r="6.35" fill="#d1d3d4"/><path d="M291,61.59a9.22,9.22,0,0,0-4.42-2.73c-1.47-.3-2.32.28-3.6.76-.5.19-.6,1-1.14,1.1s-1.57-.42-2.16-.47a9.23,9.23,0,0,0-9,4.88c-2.11,3.89-2.9,7.77-5.86,11.19A47.52,47.52,0,0,0,258.07,87c-2.66,5.38-5.36,10.86-6.25,16.79s.32,12.5,4.58,16.73,11.31,5.46,17.24,3.76,10.93-5.82,14.79-10.63c8.67-10.79,13.43-25.79,9.86-39.11A28.49,28.49,0,0,0,291,61.59Z" fill="#fff"/><path d="M268.2,125.57A17.26,17.26,0,0,1,256,120.9c-4-4-5.73-10.37-4.71-17.16.9-6.06,3.64-11.59,6.3-16.94A47.86,47.86,0,0,1,264.45,76a24.24,24.24,0,0,0,3.86-6.91c.58-1.37,1.17-2.78,1.94-4.2a9.76,9.76,0,0,1,9.51-5.13,4,4,0,0,1,1,.25,3.13,3.13,0,0,0,1,.23c.1,0,.21-.19.31-.35a1.73,1.73,0,0,1,.79-.74l.67-.27a5,5,0,0,1,3.2-.51,9.87,9.87,0,0,1,4.67,2.87h0a29,29,0,0,1,7.38,13.19c3.37,12.56-.45,27.71-9.95,39.55-4.44,5.53-9.64,9.26-15,10.8A20.27,20.27,0,0,1,268.2,125.57Zm10.68-64.85a8.64,8.64,0,0,0-7.75,4.64c-.75,1.38-1.33,2.77-1.9,4.12a25.33,25.33,0,0,1-4,7.17,46.47,46.47,0,0,0-6.69,10.59c-2.62,5.28-5.32,10.74-6.21,16.65-1,6.48.69,12.57,4.44,16.3,4,4,10.57,5.4,16.75,3.64,5.21-1.49,10.23-5.11,14.54-10.47,9.31-11.6,13-26.41,9.77-38.67A28.09,28.09,0,0,0,290.69,62h0a8.44,8.44,0,0,0-4.17-2.6,4,4,0,0,0-2.61.45l-.71.29c-.1,0-.2.19-.31.35a1.56,1.56,0,0,1-.88.76,2.89,2.89,0,0,1-1.59-.25,4,4,0,0,0-.74-.2Z" fill="#231f20"/><ellipse cx="284.42" cy="233.89" rx="56.88" ry="8.49" fill="#d1d3d4"/><ellipse cx="116.28" cy="221.87" rx="56.41" ry="5.54" fill="#d1d3d4"/><path d="M167.05,131h0a49.07,49.07,0,1,0-80.67,0h0l.05.06a48,48,0,0,0,4.09,5.12c2.05,2.84,7.62,6.44,8.6,9.78a128.38,128.38,0,0,0,6.1,15.52h43A129.49,129.49,0,0,0,154.31,146c1-3.34,6.55-6.94,8.6-9.78a49.24,49.24,0,0,0,4.08-5.12Z" fill="#333333"/><path d="M131.44,165h0a.5.5,0,0,1-.47-.53c.08-1.6,1.63-30,4.94-49.41a139,139,0,0,1-19-.14q1.38,6.23,2.36,14.18a302.28,302.28,0,0,1,2,34.84.51.51,0,0,1-.5.5.5.5,0,0,1-.5-.51c0-.44.22-28.64-4.38-49.08C99.91,113.59,94.64,105.07,95,99.59c.26-4.13,3.44-6.85,7.75-6.58,6.06.36,10.7,7.37,13.85,20.86a140.18,140.18,0,0,0,19.45.14c1.12-6.35,2.43-11.63,4-14.54,3.35-6.4,8.42-10.07,12.61-9.13,3.44.76,5.55,4.37,5.79,9.9a10.87,10.87,0,0,1-3.27,8.62c-3.38,3.3-9.4,5.31-18.22,6.07-3.36,19.67-5,49.16-5,49.56A.51.51,0,0,1,131.44,165Zm19.83-73.77c-3.52,0-7.55,3.35-10.38,8.74-1.45,2.77-2.71,7.85-3.8,14,8.42-.75,14.16-2.67,17.35-5.79a9.79,9.79,0,0,0,3-7.85c-.22-5.05-2-8.32-5-9A5.52,5.52,0,0,0,151.27,91.19ZM102.18,94A5.83,5.83,0,0,0,96,99.66c-.32,5,4.64,12.88,19.57,14.13C113,102.86,109,94.38,102.69,94Z" fill="#231f20"/><rect x="103.89" y="161.51" width="45.61" height="7.05" rx="2.63" fill="#fff"/><path d="M146.87,169.06H106.53a3.14,3.14,0,0,1-3.14-3.13v-1.78a3.15,3.15,0,0,1,3.14-3.14h40.34a3.14,3.14,0,0,1,3.13,3.14v1.78A3.14,3.14,0,0,1,146.87,169.06ZM106.53,162a2.14,2.14,0,0,0-2.14,2.14v1.78a2.14,2.14,0,0,0,2.14,2.13h40.34a2.14,2.14,0,0,0,2.13-2.13v-1.78a2.14,2.14,0,0,0-2.13-2.14Z" fill="#231f20"/><rect x="103.89" y="168.56" width="45.61" height="7.05" rx="2.63" fill="#fff"/><path d="M146.87,176.11H106.53a3.15,3.15,0,0,1-3.14-3.14v-1.78a3.14,3.14,0,0,1,3.14-3.13h40.34a3.14,3.14,0,0,1,3.13,3.13V173A3.14,3.14,0,0,1,146.87,176.11Zm-40.34-7.05a2.14,2.14,0,0,0-2.14,2.13V173a2.14,2.14,0,0,0,2.14,2.14h40.34A2.14,2.14,0,0,0,149,173v-1.78a2.14,2.14,0,0,0-2.13-2.13Z" fill="#231f20"/><rect x="103.89" y="175.61" width="45.61" height="7.05" rx="2.63" fill="#fff"/><path d="M146.87,183.15H106.53a3.14,3.14,0,0,1-3.14-3.13v-1.78a3.14,3.14,0,0,1,3.14-3.13h40.34a3.13,3.13,0,0,1,3.13,3.13V180A3.13,3.13,0,0,1,146.87,183.15Zm-40.34-7a2.13,2.13,0,0,0-2.14,2.13V180a2.13,2.13,0,0,0,2.14,2.13h40.34A2.13,2.13,0,0,0,149,180v-1.78a2.13,2.13,0,0,0-2.13-2.13Z" fill="#231f20"/><rect x="103.89" y="182.65" width="45.61" height="7.05" rx="2.63" fill="#fff"/><path d="M146.87,190.2H106.53a3.14,3.14,0,0,1-3.14-3.13v-1.78a3.15,3.15,0,0,1,3.14-3.14h40.34a3.14,3.14,0,0,1,3.13,3.14v1.78A3.14,3.14,0,0,1,146.87,190.2Zm-40.34-7a2.14,2.14,0,0,0-2.14,2.14v1.78a2.14,2.14,0,0,0,2.14,2.13h40.34a2.14,2.14,0,0,0,2.13-2.13v-1.78a2.14,2.14,0,0,0-2.13-2.14Z" fill="#231f20"/><path d="M132.74,199.17H120.65a10.75,10.75,0,0,1-8-3.6l-5.22-5.87H146l-5.22,5.87A10.75,10.75,0,0,1,132.74,199.17Z" fill="#231f20"/><path d="M132.74,199.67H120.65a11.23,11.23,0,0,1-8.4-3.77L107,190a.47.47,0,0,1-.08-.53.49.49,0,0,1,.45-.3H146a.51.51,0,0,1,.46.3.49.49,0,0,1-.08.53l-5.23,5.87A11.23,11.23,0,0,1,132.74,199.67Zm-24.22-9.47,4.48,5a10.25,10.25,0,0,0,7.65,3.43h12.09a10.27,10.27,0,0,0,7.66-3.43l4.48-5Z" fill="#231f20"/><rect x="92.4" y="185.71" width="68.99" height="37.94" rx="9.04" fill="#fff"/><path d="M152.35,224.15H101.44a9.55,9.55,0,0,1-9.54-9.54V194.75a9.55,9.55,0,0,1,9.54-9.54h50.91a9.55,9.55,0,0,1,9.54,9.54v19.86A9.55,9.55,0,0,1,152.35,224.15Zm-50.91-37.94a8.55,8.55,0,0,0-8.54,8.54v19.86a8.55,8.55,0,0,0,8.54,8.54h50.91a8.55,8.55,0,0,0,8.54-8.54V194.75a8.55,8.55,0,0,0-8.54-8.54Z" fill="#231f20"/><circle cx="107.4" cy="204.68" r="8.4" fill="#fff"/><path d="M107.4,213.58a8.9,8.9,0,1,1,8.9-8.9A8.91,8.91,0,0,1,107.4,213.58Zm0-16.8a7.9,7.9,0,1,0,7.9,7.9A7.91,7.91,0,0,0,107.4,196.78Z" fill="#d1d3d4"/><path d="M149.5,196.78H123a.5.5,0,0,1-.5-.5.5.5,0,0,1,.5-.5H149.5a.5.5,0,0,1,.5.5A.5.5,0,0,1,149.5,196.78Z" fill="#d1d3d4"/><path d="M149.5,204.84H123a.5.5,0,0,1-.5-.5.5.5,0,0,1,.5-.5H149.5a.5.5,0,0,1,.5.5A.5.5,0,0,1,149.5,204.84Z" fill="#d1d3d4"/><path d="M140.2,212.91H123a.5.5,0,0,1-.5-.5.5.5,0,0,1,.5-.5H140.2a.5.5,0,0,1,.5.5A.5.5,0,0,1,140.2,212.91Z" fill="#d1d3d4"/><path d="M328.2,99a6.24,6.24,0,0,0,2.45-3.32,27,27,0,0,1,1.53-3.92,1.64,1.64,0,0,1,.67-.73.65.65,0,0,1,.87.27.94.94,0,0,1,0,.5c-.16,1.08-.39,2.18-.48,3.26a11.34,11.34,0,0,0,1.7-2.55l2-3a2.32,2.32,0,0,1,.59-.69.83.83,0,0,1,.87-.07,1,1,0,0,1,.34.91,4.86,4.86,0,0,0-.06,1,2.56,2.56,0,0,1,.72-.63,1,1,0,0,1,.91,0c.52.33.37,1.12.1,1.68a.58.58,0,0,1,.84-.1,1,1,0,0,1,.29.88,2.87,2.87,0,0,1-.36.89c0-.29.52-.31.69-.06a1,1,0,0,1,0,.85c-.61,1.92-2.09,3.29-3.45,4.71-1.6,1.67-3.27,3.29-5,4.83" fill="#fff"/><path d="M333.44,104.19a.44.44,0,0,1-.34-.16.45.45,0,0,1,0-.64c1.71-1.52,3.39-3.14,5-4.81l.44-.45a10.86,10.86,0,0,0,2.91-4.08,1.14,1.14,0,0,0,.06-.34.46.46,0,0,1-.79-.37.73.73,0,0,1,.15-.35,1.6,1.6,0,0,0,.2-.55A.51.51,0,0,0,341,92a.19.19,0,0,0-.16,0,.45.45,0,0,1-.8-.43c.2-.42.29-1,.06-1.1a.49.49,0,0,0-.45,0A2.09,2.09,0,0,0,339,91a.49.49,0,0,1-.47.13.45.45,0,0,1-.32-.38,2.94,2.94,0,0,1,0-.79c0-.1,0-.21,0-.31s0-.43-.14-.49a.39.39,0,0,0-.36.06,2,2,0,0,0-.47.56l-2,3c-.16.23-.31.51-.48.81a6,6,0,0,1-1.31,1.84.48.48,0,0,1-.5,0,.47.47,0,0,1-.24-.44c.06-.77.19-1.54.32-2.29.05-.34.11-.67.16-1a.8.8,0,0,0,0-.26.31.31,0,0,0-.26,0,1.33,1.33,0,0,0-.47.54,14,14,0,0,0-1,2.57c-.15.43-.29.86-.45,1.28a6.55,6.55,0,0,1-2.65,3.55.46.46,0,0,1-.62-.16.47.47,0,0,1,.16-.63,5.68,5.68,0,0,0,2.25-3.09c.16-.41.3-.82.44-1.24a14.94,14.94,0,0,1,1.12-2.73,2,2,0,0,1,.89-.92,1.2,1.2,0,0,1,.93,0,.94.94,0,0,1,.54.53,1.28,1.28,0,0,1,0,.74c-.05.34-.1.68-.16,1,0,.15,0,.3-.08.45a2,2,0,0,0,.11-.2c.18-.32.35-.63.52-.88l2-3a2.84,2.84,0,0,1,.72-.81,1.27,1.27,0,0,1,1.36-.08,1.37,1.37,0,0,1,.56,1.27,1.38,1.38,0,0,1,1.35,0,1.35,1.35,0,0,1,.54,1.4,1.05,1.05,0,0,1,.45.22,1.41,1.41,0,0,1,.45,1.3,1.55,1.55,0,0,1-.05.23.94.94,0,0,1,.3.26,1.47,1.47,0,0,1,.09,1.26,11.8,11.8,0,0,1-3.13,4.44l-.43.44c-1.61,1.69-3.31,3.32-5,4.86A.47.47,0,0,1,333.44,104.19Z" fill="#231f20"/><path d="M255.66,183.61l-6.31,13.73-24.94-12.61s-8.75,13.65-7,13.87,7.83-1.94,7.83-1.94,30.93,20,34.25,16.61S275,181.92,275,181.92" fill="#fff"/><path d="M258.28,214.12c-2.12,0-6.71-1.51-17.34-7.48-7.37-4.14-14.48-8.67-15.72-9.47-1.21.42-6.11,2.1-7.83,1.89a.7.7,0,0,1-.56-.41c-.72-1.54,4.79-10.42,7.19-14.17a.47.47,0,0,1,.59-.16l24.52,12.4,6.11-13.3a.47.47,0,0,1,.61-.22.45.45,0,0,1,.22.6l-6.3,13.73a.49.49,0,0,1-.27.24.5.5,0,0,1-.36,0l-24.57-12.42c-3.51,5.5-6.92,11.58-6.92,12.83h.1c1.62,0,5.81-1.37,7.38-1.92a.47.47,0,0,1,.4,0c11.83,7.65,31.44,19,33.67,16.67,3.22-3.3,15.24-30.93,15.37-31.21a.45.45,0,1,1,.83.36c-.49,1.15-12.21,28.06-15.55,31.48A2,2,0,0,1,258.28,214.12Z" fill="#231f20"/><path d="M313.79,177.24l15.1,47.19s14.94-.23,13.47.83-23.92,5.91-23.92,5.91L291.87,171" fill="#fff"/><path d="M318.44,231.63a.46.46,0,0,1-.42-.27l-26.56-60.19a.45.45,0,0,1,.83-.37l26.42,59.85c8-1.74,19.55-4.39,22.65-5.45a113.1,113.1,0,0,0-12.47-.31.44.44,0,0,1-.44-.32l-15.09-47.19a.46.46,0,0,1,.29-.58.47.47,0,0,1,.58.3l15,46.87c13.3-.19,13.55.62,13.67,1a.6.6,0,0,1-.27.69c-1.5,1.08-21.77,5.49-24.08,6Z" fill="#231f20"/><path d="M270.56,93.23c-6.28,8.4-3.8,23.63-2.52,35.15l38.63-1.93s-5.2-27.33-6.8-37.26C291.18,86.08,276.83,84.83,270.56,93.23Z" fill="#333333"/><path d="M306.67,124.62a.45.45,0,0,1-.45-.39c-1.65-10.3-6.11-30.9-6.15-31.11a.46.46,0,0,1,.89-.19c0,.21,4.51,20.83,6.16,31.16a.45.45,0,0,1-.38.52Z" fill="#231f20"/><path d="M267.73,128.18s-5.92,11.09-21.59,58.45c0,0,51.74,13.5,76.56,6.77l-16.27-66.89Z" fill="#231f20"/><path d="M305.37,195.7c-25.85,0-58.93-8.53-59.34-8.64a.44.44,0,0,1-.28-.22.43.43,0,0,1,0-.35c15.51-46.86,21.56-58.41,21.62-58.52a.43.43,0,0,1,.37-.23l38.7-1.67a.45.45,0,0,1,.45.34l16.27,66.88a.44.44,0,0,1-.31.53A68.62,68.62,0,0,1,305.37,195.7Zm-58.66-9.38c5.14,1.3,52.13,12.81,75.46,6.76L306.08,127,268,128.61C267.12,130.39,260.92,143.4,246.71,186.32Z" fill="#231f20"/><path d="M317.78,229.14c0,.11,11.92-2.94,11.92-2.94s.72-3,1.71-3.36,13.28.16,13.67,2-27.15,9-27.15,9Z" fill="#231f20"/><path d="M317.93,234.33a.44.44,0,0,1-.27-.09.41.41,0,0,1-.17-.34l-.15-4.74a.44.44,0,0,1,.36-.45h.1c.66-.09,7.12-1.73,11.53-2.87.25-1,.91-3.05,1.93-3.41s10.87,0,13.49,1.5a1.38,1.38,0,0,1,.76.88c.13.63.33,1.58-13.74,5.72-6.76,2-13.67,3.78-13.73,3.8Zm.3-4.85.12,3.85c12.16-3.16,25.21-7.09,26.27-8.41a1,1,0,0,0-.29-.22c-2.26-1.33-12-1.71-12.78-1.44-.45.15-1.1,1.7-1.42,3a.45.45,0,0,1-.32.32C322.34,228.54,319.42,229.3,318.23,229.48Z" fill="#231f20"/><path d="M226.27,184.92l-6.14,10.7,2.25,2.37s-8.48,6-10.13,4.86S222,183,222,183Z" fill="#231f20"/><path d="M212.79,203.42a1.29,1.29,0,0,1-.79-.21c-.91-.63,0-4.7,9.6-20.49a.44.44,0,0,1,.56-.17l4.29,2a.47.47,0,0,1,.24.26.45.45,0,0,1,0,.36l-6,10.41,2,2.14a.44.44,0,0,1,.11.35.4.4,0,0,1-.18.31C220.82,199.64,215.27,203.42,212.79,203.42Zm9.36-19.9c-5.16,8.52-10.12,17.88-9.61,19,.78.53,5.29-1.92,9.17-4.61l-1.9-2a.42.42,0,0,1-.06-.52l5.89-10.28Z" fill="#231f20"/><path d="M277.9,107.52s22.4,13.45,36.26,14.36c12.51-1.33,22.11-18.9,22.11-18.9l-8-6.66s-14.14,10.22-18.54,11.11c-5-.81-26.64-9.57-26.64-9.57" fill="#333333"/><path d="M314.16,122.34h-.07a135.1,135.1,0,0,1-33.18-10.8.45.45,0,1,1,.39-.82,134.53,134.53,0,0,0,32.93,10.72.46.46,0,0,1-.07.91Z" fill="#231f20"/><path d="M307.71,107.88a.36.36,0,0,1-.14,0c-.79-.27-19.3-6.69-26.75-12.38a.46.46,0,0,1,.56-.73c7.33,5.6,26.29,12.18,26.48,12.25a.45.45,0,0,1-.15.88Z" fill="#231f20"/><path d="M290.24,84.5,291.9,91s-.09,3.2-4.72,3.3-6.06-2.74-6.06-2.74l-2.66-12.3s5.88-5.42,3.08-12.18a9.23,9.23,0,0,0,10.35,2.29,81.83,81.83,0,0,1,2.1,9.75C294.35,82.66,290.24,84.5,290.24,84.5Z" fill="#fff"/><path d="M287,94.83c-4.7,0-6.22-2.89-6.28-3a.34.34,0,0,1,0-.12L278,79.4a.53.53,0,0,1,.15-.48c.06,0,5.59-5.27,3-11.62a.5.5,0,0,1,.84-.52,8.68,8.68,0,0,0,9.79,2.16.49.49,0,0,1,.41,0,.51.51,0,0,1,.26.31,79.84,79.84,0,0,1,2.1,9.83c.33,3.2-2.58,5.08-3.65,5.66l1.55,6.15a.32.32,0,0,1,0,.14s-.16,3.67-5.21,3.78Zm-5.36-3.42c.21.36,1.62,2.52,5.58,2.42,3.77-.08,4.18-2.34,4.22-2.75l-1.63-6.46A.51.51,0,0,1,290,84s3.77-1.74,3.45-4.84a74.23,74.23,0,0,0-1.94-9.14,9.52,9.52,0,0,1-9-1.39c1.2,5.45-2.61,9.8-3.55,10.78Z" fill="#231f20"/><path d="M280.43,78.4c-1.84-3.38-7.36-1.05-4.58,2.54a3.71,3.71,0,0,0,5.2.76" fill="#fff"/><path d="M278.9,83a4,4,0,0,1-.49,0,4.38,4.38,0,0,1-3-1.68,3.06,3.06,0,0,1-.64-3.3,3.16,3.16,0,0,1,2.81-1.68,3.56,3.56,0,0,1,3.24,1.9.5.5,0,0,1-.88.48,2.48,2.48,0,0,0-2.33-1.38,2.21,2.21,0,0,0-1.94,1.1,2.19,2.19,0,0,0,.53,2.27,3.42,3.42,0,0,0,2.28,1.3,3,3,0,0,0,2.21-.62.5.5,0,0,1,.7.08.49.49,0,0,1-.08.7A3.86,3.86,0,0,1,278.9,83Z" fill="#231f20"/><path d="M287.55,74.33s3.27,2.7,2.91,3.44-2,.82-2,.82" fill="#fff"/><path d="M288.48,79.09a.5.5,0,0,1,0-1c.55,0,1.4-.22,1.55-.53a13.27,13.27,0,0,0-2.78-2.84.5.5,0,1,1,.63-.77c2.38,2,3.4,3.31,3.05,4-.47,1-2.09,1.08-2.41,1.1Z" fill="#231f20"/><ellipse cx="283.96" cy="73.05" rx="0.58" ry="0.82" transform="translate(-8.7 90.97) rotate(-17.93)" fill="#231f20"/><ellipse cx="289.14" cy="72.73" rx="0.58" ry="0.82" transform="translate(-8.35 92.55) rotate(-17.93)" fill="#231f20"/><path d="M288.36,82a3.21,3.21,0,0,1-.68-.07,4.5,4.5,0,0,1-3-2.34.5.5,0,0,1,.86-.52,3.54,3.54,0,0,0,2.3,1.88,3.8,3.8,0,0,0,2.71-.73.5.5,0,0,1,.62.79A5,5,0,0,1,288.36,82Z" fill="#231f20"/><path d="M290.24,84.5s-3.41.78-5.21.22c0,0,2.21,3.59,6.15,3.72Z" fill="#231f20"/><path d="M291.18,88.94h0c-4.15-.14-6.46-3.8-6.55-4a.5.5,0,0,1,.57-.74c1.64.52,4.92-.22,4.95-.23a.51.51,0,0,1,.6.37l.93,4a.5.5,0,0,1-.48.61Zm-5-3.53a7.5,7.5,0,0,0,4.33,2.48l-.66-2.81A16.53,16.53,0,0,1,286.2,85.41Z" fill="#231f20"/><path d="M79.93,197.93a23.1,23.1,0,0,1,5.91-3.86c.18,6.32-2.39,12.13-4.76,16.11h-7.7" fill="#fff"/><path d="M81.08,210.68h-7.7a.5.5,0,0,1-.5-.5.5.5,0,0,1,.5-.5H80.8c2.11-3.6,4.51-9,4.55-14.83a24.05,24.05,0,0,0-5.09,3.45.5.5,0,0,1-.66-.75,23.48,23.48,0,0,1,6.05-3.94.5.5,0,0,1,.46,0,.49.49,0,0,1,.23.41c.19,6.53-2.52,12.51-4.83,16.38A.5.5,0,0,1,81.08,210.68Z" fill="#d1d3d4"/><path d="M68.89,199.62c1.89-9.88,9.63-16.09,9.63-16.09a35.81,35.81,0,0,1,1.41,14.4,52.8,52.8,0,0,1-2.66,12.25H69" fill="#fff"/><path d="M77.27,210.68H69a.5.5,0,0,1-.5-.5.51.51,0,0,1,.5-.5h7.94a52.43,52.43,0,0,0,2.52-11.8,35.58,35.58,0,0,0-1.15-13.47c-1.8,1.64-7.36,7.27-8.9,15.31a.52.52,0,0,1-.59.4.51.51,0,0,1-.4-.59c1.91-9.95,9.5-16.13,9.82-16.39a.51.51,0,0,1,.46-.09.52.52,0,0,1,.33.32A36.27,36.27,0,0,1,80.43,198a54.28,54.28,0,0,1-2.69,12.38A.5.5,0,0,1,77.27,210.68Z" fill="#d1d3d4"/><path d="M64.79,210.19h7.34c.07-2.18-.42-5.47-2.78-9.74-.16-.28-.31-.56-.47-.82-4.25-7.2-8.14-7.13-8.14-7.13C59.09,200.08,62.57,206.84,64.79,210.19Z" fill="#fff"/><path d="M72.13,210.69H64.79a.52.52,0,0,1-.42-.23c-2.26-3.41-5.81-10.3-4.12-18.06a.51.51,0,0,1,.48-.4c.16,0,4.23,0,8.58,7.37q.24.4.48.84c2.47,4.48,2.91,7.91,2.84,10A.51.51,0,0,1,72.13,210.69Zm-7.07-1h6.58a19.2,19.2,0,0,0-2.73-9c-.15-.28-.31-.55-.46-.81-3.25-5.5-6.26-6.6-7.31-6.82C59.79,200.12,62.93,206.4,65.06,209.69Z" fill="#d1d3d4"/><polygon points="66.13 221.83 80.52 221.83 82.84 210.19 63.81 210.19 66.13 221.83" fill="#fff"/><path d="M80.52,222.33H66.13a.49.49,0,0,1-.49-.41l-2.32-11.63a.53.53,0,0,1,.1-.42.5.5,0,0,1,.39-.18h19a.5.5,0,0,1,.39.18.53.53,0,0,1,.1.42L81,221.92A.49.49,0,0,1,80.52,222.33Zm-14-1H80.11l2.12-10.64H64.42Z" fill="#d1d3d4"/></g></svg>