<svg width="1362.3" height="151.5" viewBox="0 0 1362.3 151.5" xmlns="http://www.w3.org/2000/svg"><g id="svgGroup" stroke-linecap="round" fill-rule="evenodd" font-size="9pt" stroke="#000" stroke-width="0.25mm" fill="#000" style="stroke:#000;stroke-width:0.25mm;fill:#000"><path d="M 376.8 77.1 L 366.9 77.1 Q 366.9 70.8 364.95 68.025 Q 363 65.25 359.625 64.5 A 26.249 26.249 0 0 0 355.732 63.949 Q 354.035 63.832 352.2 63.9 L 348.3 64.05 L 348.3 88.65 A 196.687 196.687 0 0 1 348.241 93.537 A 164.905 164.905 0 0 1 348.15 96.3 Q 348.026 99.267 347.801 101.113 A 23.987 23.987 0 0 1 347.7 101.85 L 367.8 101.85 Q 372.3 101.85 376.5 99.825 A 14.859 14.859 0 0 0 381.652 95.658 A 19.785 19.785 0 0 0 383.4 93.075 A 18.105 18.105 0 0 0 385.148 88.679 Q 385.684 86.643 385.918 84.23 A 41.251 41.251 0 0 0 386.1 80.25 L 395.85 80.25 L 395.1 113.25 L 315.9 113.25 L 315.9 103.35 Q 318.541 103.235 320.523 102.769 A 14.797 14.797 0 0 0 321.675 102.45 A 5.477 5.477 0 0 0 324.369 100.505 A 8.207 8.207 0 0 0 325.275 99 Q 326.55 96.3 326.55 90.3 L 326.55 32.85 A 134.067 134.067 0 0 1 326.677 26.944 A 119.731 119.731 0 0 1 326.775 25.05 A 711.168 711.168 0 0 1 326.883 23.287 Q 326.989 21.586 327.076 20.363 A 164.023 164.023 0 0 1 327.15 19.35 A 92.46 92.46 0 0 1 325.875 19.42 Q 323.915 19.516 321.323 19.571 A 255.463 255.463 0 0 1 321.15 19.575 A 181.584 181.584 0 0 0 319.472 19.617 Q 317.138 19.688 315.9 19.8 L 315.9 8.25 L 390.9 8.25 L 391.8 37.35 L 381.9 37.35 A 38.219 38.219 0 0 0 381.649 32.809 Q 381.054 27.853 379.05 24.9 A 16.005 16.005 0 0 0 376.19 21.664 A 12.743 12.743 0 0 0 372 19.275 A 24.091 24.091 0 0 0 366.659 18.093 Q 365.586 17.986 364.523 17.986 A 20.878 20.878 0 0 0 363.75 18 L 358.35 18.15 A 20.202 20.202 0 0 0 355.939 18.286 Q 354.699 18.435 353.638 18.748 A 11.174 11.174 0 0 0 352.95 18.975 A 5.371 5.371 0 0 0 350.51 20.816 Q 349.936 21.567 349.5 22.575 A 11.079 11.079 0 0 0 348.893 24.494 Q 348.3 27.087 348.3 31.2 L 348.3 53.7 L 365.85 53.7 L 365.25 40.65 L 376.8 40.65 L 376.8 77.1 Z M 1319.1 113.25 L 1279.65 113.25 L 1279.65 103.5 A 16.905 16.905 0 0 0 1281.801 103.373 Q 1284.108 103.076 1285.436 102.084 A 4.641 4.641 0 0 0 1285.725 101.85 A 6.825 6.825 0 0 0 1287.505 99.32 Q 1287.893 98.394 1288.098 97.275 A 12.22 12.22 0 0 0 1288.125 97.125 Q 1288.633 94.147 1288.649 90.395 A 57.359 57.359 0 0 0 1288.65 90.15 L 1288.65 28.5 Q 1288.65 25.8 1288.8 22.275 A 143.888 143.888 0 0 1 1289.177 16.279 A 130.92 130.92 0 0 1 1289.25 15.45 A 110.151 110.151 0 0 1 1287.334 15.552 Q 1285.641 15.628 1283.625 15.675 A 154.275 154.275 0 0 0 1282.111 15.717 Q 1280.651 15.766 1279.61 15.834 A 34.524 34.524 0 0 0 1278.75 15.9 L 1278.75 4.5 Q 1283.965 4.5 1287.938 4.072 A 49.271 49.271 0 0 0 1290.375 3.75 A 64.621 64.621 0 0 0 1293.145 3.252 Q 1294.568 2.962 1295.769 2.636 A 26.015 26.015 0 0 0 1297.95 1.95 Q 1300.8 0.9 1301.7 0 L 1309.95 0 L 1309.95 68.4 L 1317.15 68.4 L 1327.95 55.95 A 158.411 158.411 0 0 0 1329.318 54.459 Q 1330.378 53.288 1331.175 52.35 A 27.877 27.877 0 0 1 1333.13 50.269 A 24.539 24.539 0 0 1 1333.8 49.65 L 1325.85 49.65 L 1325.85 38.25 L 1359.6 38.25 L 1359.6 47.85 A 34.303 34.303 0 0 0 1354.505 48.808 A 26.546 26.546 0 0 0 1350.3 50.325 Q 1346.25 52.2 1343.325 54.75 A 60.919 60.919 0 0 0 1340.606 57.262 A 45.374 45.374 0 0 0 1338.3 59.7 L 1328.7 70.5 A 15.363 15.363 0 0 1 1331.208 71.99 A 20.24 20.24 0 0 1 1333.125 73.575 Q 1335.3 75.6 1338.45 79.8 L 1348.5 93 A 54.126 54.126 0 0 1 1348.983 93.572 Q 1349.515 94.21 1350.186 95.047 A 169.35 169.35 0 0 1 1350.825 95.85 Q 1352.25 97.65 1354.05 99.375 Q 1355.85 101.1 1357.95 102.3 A 9.019 9.019 0 0 0 1360.771 103.358 A 8.274 8.274 0 0 0 1362.3 103.5 L 1362.3 113.25 L 1345.05 113.25 Q 1340.25 113.25 1336.65 109.875 A 45.398 45.398 0 0 1 1334.051 107.209 Q 1332.751 105.772 1331.339 104.019 A 113.249 113.249 0 0 1 1328.4 100.2 A 328.567 328.567 0 0 1 1325.644 96.469 A 391.357 391.357 0 0 1 1322.775 92.475 Q 1319.85 88.35 1317.375 84.675 Q 1315.48 81.861 1314.157 79.971 A 138.77 138.77 0 0 0 1313.4 78.9 L 1309.95 79.05 L 1309.95 89.1 Q 1309.95 90.708 1309.862 93.327 A 302.259 302.259 0 0 1 1309.8 95.025 A 160.224 160.224 0 0 1 1309.507 100.33 A 137.725 137.725 0 0 1 1309.35 102.3 A 48.402 48.402 0 0 1 1312.192 102.034 A 61.901 61.901 0 0 1 1314.6 101.925 A 318.135 318.135 0 0 1 1315.95 101.892 Q 1317.265 101.863 1318.261 101.854 A 92.647 92.647 0 0 1 1319.1 101.85 L 1319.1 113.25 Z M 145.95 113.25 L 145.95 103.5 A 16.905 16.905 0 0 0 148.101 103.373 Q 150.408 103.076 151.736 102.084 A 4.641 4.641 0 0 0 152.025 101.85 A 6.825 6.825 0 0 0 153.805 99.32 Q 154.193 98.394 154.398 97.275 A 12.22 12.22 0 0 0 154.425 97.125 Q 154.933 94.147 154.949 90.395 A 57.359 57.359 0 0 0 154.95 90.15 L 154.8 68.85 Q 154.8 60.14 152.466 55.44 A 13.057 13.057 0 0 0 151.875 54.375 A 9.553 9.553 0 0 0 144.897 49.817 A 14.523 14.523 0 0 0 142.65 49.65 A 17.759 17.759 0 0 0 135.943 50.993 A 20.68 20.68 0 0 0 135.225 51.3 Q 131.55 52.95 129 55.2 L 129 89.1 Q 129 90.708 128.912 93.327 A 302.259 302.259 0 0 1 128.85 95.025 A 160.224 160.224 0 0 1 128.557 100.33 A 137.725 137.725 0 0 1 128.4 102.3 A 56.865 56.865 0 0 1 132.048 101.994 A 66.519 66.519 0 0 1 133.8 101.925 A 342.636 342.636 0 0 1 135.141 101.892 Q 136.436 101.863 137.373 101.854 A 80.874 80.874 0 0 1 138.15 101.85 L 138.15 113.25 L 98.85 113.25 L 98.85 103.5 A 16.905 16.905 0 0 0 101.001 103.373 Q 103.308 103.076 104.636 102.084 A 4.641 4.641 0 0 0 104.925 101.85 Q 106.789 100.21 107.245 97.161 A 11.897 11.897 0 0 0 107.25 97.125 A 40.658 40.658 0 0 0 107.58 93.953 Q 107.7 92.161 107.7 90.15 L 107.7 28.5 Q 107.7 25.8 107.85 22.275 A 143.888 143.888 0 0 1 108.227 16.279 A 130.92 130.92 0 0 1 108.3 15.45 A 110.151 110.151 0 0 1 106.384 15.552 Q 104.691 15.628 102.675 15.675 A 154.275 154.275 0 0 0 101.161 15.717 Q 99.701 15.766 98.66 15.834 A 34.524 34.524 0 0 0 97.8 15.9 L 97.8 4.5 Q 102.898 4.5 106.781 4.108 A 49.788 49.788 0 0 0 109.575 3.75 A 62.868 62.868 0 0 0 112.338 3.252 Q 115.076 2.691 116.951 1.996 A 18.492 18.492 0 0 0 117.075 1.95 Q 119.231 1.134 120.346 0.409 A 5.267 5.267 0 0 0 120.9 0 L 129 0 L 129 44.25 A 33.922 33.922 0 0 1 133.55 41.198 A 40.773 40.773 0 0 1 135.9 39.975 Q 139.8 38.1 143.85 36.975 A 36.782 36.782 0 0 1 146.74 36.289 Q 148.168 36.015 149.436 35.912 A 18.099 18.099 0 0 1 150.9 35.85 Q 164.7 35.85 170.4 43.725 A 24.512 24.512 0 0 1 173.633 50.178 Q 176.151 57.513 176.25 69 L 176.25 89.1 Q 176.25 90.708 176.162 93.327 A 302.259 302.259 0 0 1 176.1 95.025 A 160.224 160.224 0 0 1 175.807 100.33 A 137.725 137.725 0 0 1 175.65 102.3 A 48.402 48.402 0 0 1 178.492 102.034 A 61.901 61.901 0 0 1 180.9 101.925 A 318.135 318.135 0 0 1 182.25 101.892 Q 183.565 101.863 184.561 101.854 A 92.647 92.647 0 0 1 185.4 101.85 L 185.4 113.25 L 145.95 113.25 Z M 92.55 42.15 L 82.65 42.15 Q 82.65 35.96 81.336 31.391 A 23.605 23.605 0 0 0 80.4 28.725 A 19.999 19.999 0 0 0 78.072 24.582 A 15.133 15.133 0 0 0 74.025 20.775 Q 70.123 18.292 64.812 18.292 A 23.25 23.25 0 0 0 64.2 18.3 L 57 18.3 L 57 88.65 Q 57 92.7 56.85 96.45 Q 56.726 99.541 56.501 101.409 A 23.109 23.109 0 0 1 56.4 102.15 A 44.109 44.109 0 0 1 58.322 101.97 Q 60.316 101.824 62.925 101.775 Q 66.194 101.713 67.789 101.702 A 90.059 90.059 0 0 1 68.4 101.7 L 68.4 113.25 L 24.6 113.25 L 24.6 103.35 Q 27.241 103.235 29.223 102.769 A 14.797 14.797 0 0 0 30.375 102.45 A 5.477 5.477 0 0 0 33.069 100.505 A 8.207 8.207 0 0 0 33.975 99 Q 35.25 96.3 35.25 90.3 L 35.25 18.45 L 28.35 18.45 A 21.018 21.018 0 0 0 22.275 19.396 A 16.225 16.225 0 0 0 14.85 24.3 A 17.349 17.349 0 0 0 11.691 29.866 Q 9.9 34.841 9.9 42.15 L 0 42.15 L 0.75 8.25 L 91.65 8.25 L 92.55 42.15 Z M 1225.95 113.25 L 1186.65 113.25 L 1186.65 103.5 A 16.944 16.944 0 0 0 1188.712 103.384 Q 1191.328 103.062 1192.65 101.85 A 6.832 6.832 0 0 0 1194.288 99.504 Q 1194.692 98.579 1194.915 97.451 A 12.613 12.613 0 0 0 1194.975 97.125 Q 1195.483 94.147 1195.499 90.395 A 57.359 57.359 0 0 0 1195.5 90.15 L 1195.5 64.95 Q 1195.5 62.25 1195.65 58.875 Q 1195.8 55.5 1196.1 52.2 A 110.151 110.151 0 0 1 1194.184 52.302 Q 1192.491 52.378 1190.475 52.425 A 154.275 154.275 0 0 0 1188.961 52.467 Q 1187.501 52.516 1186.46 52.584 A 34.524 34.524 0 0 0 1185.6 52.65 L 1185.6 41.25 A 106.434 106.434 0 0 0 1190.48 41.145 Q 1192.867 41.035 1194.935 40.81 A 50.926 50.926 0 0 0 1197.3 40.5 A 63.772 63.772 0 0 0 1200.102 40.002 Q 1202.777 39.46 1204.617 38.795 A 18.396 18.396 0 0 0 1204.875 38.7 Q 1207.031 37.884 1208.146 37.159 A 5.267 5.267 0 0 0 1208.7 36.75 L 1216.05 36.75 A 45.904 45.904 0 0 1 1216.181 37.659 Q 1216.35 38.925 1216.35 39.6 A 19.669 19.669 0 0 0 1216.392 40.908 A 17.371 17.371 0 0 0 1216.425 41.325 A 8.934 8.934 0 0 0 1216.483 41.799 Q 1216.609 42.659 1216.95 44.25 A 33.922 33.922 0 0 1 1221.5 41.198 A 40.773 40.773 0 0 1 1223.85 39.975 A 50.555 50.555 0 0 1 1230.675 37.268 A 46.176 46.176 0 0 1 1231.65 36.975 A 33.585 33.585 0 0 1 1234.448 36.289 Q 1236.675 35.85 1238.55 35.85 Q 1252.35 35.85 1258.125 43.725 A 24.105 24.105 0 0 1 1261.413 50.265 Q 1263.55 56.552 1263.851 65.87 A 97.132 97.132 0 0 1 1263.9 69 L 1263.9 89.1 Q 1263.9 90.708 1263.812 93.327 A 302.259 302.259 0 0 1 1263.75 95.025 A 160.224 160.224 0 0 1 1263.457 100.33 A 137.725 137.725 0 0 1 1263.3 102.3 A 56.865 56.865 0 0 1 1266.948 101.994 A 66.519 66.519 0 0 1 1268.7 101.925 A 342.636 342.636 0 0 1 1270.041 101.892 Q 1271.336 101.863 1272.273 101.854 A 80.874 80.874 0 0 1 1273.05 101.85 L 1273.05 113.25 L 1233.75 113.25 L 1233.75 103.5 A 16.905 16.905 0 0 0 1235.901 103.373 Q 1238.208 103.076 1239.536 102.084 A 4.641 4.641 0 0 0 1239.825 101.85 A 6.825 6.825 0 0 0 1241.605 99.32 Q 1241.993 98.394 1242.198 97.275 A 12.22 12.22 0 0 0 1242.225 97.125 Q 1242.733 94.147 1242.749 90.395 A 57.359 57.359 0 0 0 1242.75 90.15 L 1242.6 68.85 A 54.773 54.773 0 0 0 1242.38 63.763 Q 1241.82 57.771 1239.825 54.375 Q 1237.05 49.65 1230.45 49.65 A 17.759 17.759 0 0 0 1223.743 50.993 A 20.68 20.68 0 0 0 1223.025 51.3 Q 1219.35 52.95 1216.8 55.2 L 1216.8 59.475 L 1216.8 63.75 L 1216.8 89.1 Q 1216.8 90.708 1216.712 93.327 A 302.259 302.259 0 0 1 1216.65 95.025 A 160.224 160.224 0 0 1 1216.357 100.33 A 137.725 137.725 0 0 1 1216.2 102.3 A 47.132 47.132 0 0 1 1218.731 102.056 A 62.706 62.706 0 0 1 1221.525 101.925 A 368.377 368.377 0 0 1 1222.898 101.892 Q 1224.223 101.863 1225.169 101.854 A 82.147 82.147 0 0 1 1225.95 101.85 L 1225.95 113.25 Z M 432.9 113.25 L 408 113.25 L 408 103.65 A 16.878 16.878 0 0 0 411.808 101.494 A 21.133 21.133 0 0 0 413.7 99.9 Q 416.4 97.35 419.4 93.9 L 432.45 78.9 Q 430.05 76.05 427.575 73.125 Q 425.1 70.2 422.7 67.35 Q 420.3 64.5 417.75 61.65 A 294.587 294.587 0 0 1 416.784 60.436 Q 415.455 58.756 413.689 56.484 A 934.967 934.967 0 0 1 413.1 55.725 A 43.166 43.166 0 0 1 411.495 53.523 Q 409.947 51.244 409.223 49.41 A 12.795 12.795 0 0 1 409.2 49.35 L 405.15 49.65 L 405.15 38.25 L 438.3 38.25 L 438.3 47.85 Q 434.246 47.995 434.594 50.306 A 2.894 2.894 0 0 0 434.625 50.475 A 8.216 8.216 0 0 0 435.243 52.256 Q 436.078 54.033 437.85 56.1 L 444.75 64.2 L 450.6 57.3 L 454.2 53.1 Q 456 51 457.95 49.05 L 450.6 49.65 L 450.6 38.25 L 477 38.25 L 477 47.85 Q 474 49.05 471.375 50.85 Q 468.75 52.65 466.5 54.825 A 46.121 46.121 0 0 0 463.828 57.646 A 57.652 57.652 0 0 0 462 59.85 L 451.95 72.15 L 469.35 92.4 A 105.35 105.35 0 0 1 472.331 95.958 A 93.227 93.227 0 0 1 473.25 97.125 Q 475.05 99.45 476.55 102.15 L 481.65 101.85 L 481.65 113.25 L 446.25 113.25 L 446.25 103.65 Q 450.588 103.379 451.189 101.699 A 1.644 1.644 0 0 0 451.275 101.325 A 2.872 2.872 0 0 0 451.292 101.008 Q 451.292 99.359 449.49 97.11 A 18.609 18.609 0 0 0 448.8 96.3 L 439.8 86.85 L 432.75 95.25 Q 432.055 96.223 430.007 98.484 A 144.893 144.893 0 0 1 429.675 98.85 Q 427.35 101.4 426 102.45 L 432.9 101.85 L 432.9 113.25 Z M 745.5 109.8 L 745.8 114.3 L 734.4 114.3 L 733.8 88.5 L 743.55 88.5 A 14.691 14.691 0 0 0 746.493 95.921 A 18.116 18.116 0 0 0 747.15 96.75 A 20.48 20.48 0 0 0 752.685 101.327 A 25.507 25.507 0 0 0 755.4 102.675 A 27.157 27.157 0 0 0 763.165 104.658 A 33.646 33.646 0 0 0 766.8 104.85 Q 769.35 104.85 771.675 104.1 Q 774 103.35 775.575 101.625 A 5.98 5.98 0 0 0 777.131 97.898 A 7.842 7.842 0 0 0 777.15 97.35 Q 777.15 94.5 775.125 92.7 A 14.452 14.452 0 0 0 773.395 91.398 Q 772.466 90.794 771.321 90.209 A 34.478 34.478 0 0 0 769.275 89.25 A 134.571 134.571 0 0 0 766.143 87.949 Q 763.313 86.813 759.75 85.5 Q 755.1 83.7 750.375 81.75 A 45.389 45.389 0 0 1 741.691 77.036 A 42.425 42.425 0 0 1 741.675 77.025 Q 737.7 74.25 735.3 70.125 A 16.991 16.991 0 0 1 733.393 65.053 Q 732.9 62.719 732.9 60 A 23.782 23.782 0 0 1 734.544 51.392 A 27.893 27.893 0 0 1 734.55 51.375 A 22.572 22.572 0 0 1 738.917 44.355 A 26.245 26.245 0 0 1 739.65 43.575 A 22.95 22.95 0 0 1 744.986 39.562 A 29.289 29.289 0 0 1 748.425 37.95 Q 753.75 35.85 761.1 35.85 Q 764.58 35.85 768.892 36.792 A 55.467 55.467 0 0 1 770.325 37.125 Q 775.5 38.4 779.1 40.95 L 779.1 36.6 L 790.5 36.6 L 790.5 63.15 L 780.75 63.15 A 23.061 23.061 0 0 0 779.265 57.995 A 18.85 18.85 0 0 0 777.075 54.15 Q 774.3 50.4 769.95 48.375 A 21.738 21.738 0 0 0 762.995 46.493 A 26.745 26.745 0 0 0 760.2 46.35 A 13.44 13.44 0 0 0 754.602 47.516 A 13.109 13.109 0 0 0 753.375 48.15 A 5.951 5.951 0 0 0 750.492 52.284 A 9.943 9.943 0 0 0 750.3 54.3 Q 750.3 57.75 752.7 59.775 A 14.391 14.391 0 0 0 755.045 61.363 Q 756.872 62.37 759.3 63.15 Q 763.5 64.5 768.6 66.3 A 80.89 80.89 0 0 1 776.556 69.406 A 63.372 63.372 0 0 1 782.175 72.3 A 32.595 32.595 0 0 1 787.772 76.368 A 26.432 26.432 0 0 1 791.55 80.625 A 18.511 18.511 0 0 1 794.646 88.257 A 25.036 25.036 0 0 1 795 92.55 A 25.672 25.672 0 0 1 794.381 98.337 A 18.35 18.35 0 0 1 791.1 105.45 Q 787.2 110.55 780.975 113.1 Q 774.75 115.65 767.7 115.65 Q 761.25 115.65 755.1 114 A 42.479 42.479 0 0 1 751.191 112.759 Q 749.29 112.046 747.747 111.214 A 18.766 18.766 0 0 1 745.5 109.8 Z M 818.25 109.8 L 818.55 114.3 L 807.15 114.3 L 806.55 88.5 L 816.3 88.5 A 14.691 14.691 0 0 0 819.243 95.921 A 18.116 18.116 0 0 0 819.9 96.75 A 20.48 20.48 0 0 0 825.435 101.327 A 25.507 25.507 0 0 0 828.15 102.675 A 27.157 27.157 0 0 0 835.915 104.658 A 33.646 33.646 0 0 0 839.55 104.85 Q 842.1 104.85 844.425 104.1 Q 846.75 103.35 848.325 101.625 A 5.98 5.98 0 0 0 849.881 97.898 A 7.842 7.842 0 0 0 849.9 97.35 Q 849.9 94.5 847.875 92.7 A 14.452 14.452 0 0 0 846.145 91.398 Q 845.216 90.794 844.071 90.209 A 34.478 34.478 0 0 0 842.025 89.25 A 134.571 134.571 0 0 0 838.893 87.949 Q 836.063 86.813 832.5 85.5 Q 827.85 83.7 823.125 81.75 A 45.389 45.389 0 0 1 814.441 77.036 A 42.425 42.425 0 0 1 814.425 77.025 Q 810.45 74.25 808.05 70.125 A 16.991 16.991 0 0 1 806.143 65.053 Q 805.65 62.719 805.65 60 A 23.782 23.782 0 0 1 807.294 51.392 A 27.893 27.893 0 0 1 807.3 51.375 A 22.572 22.572 0 0 1 811.667 44.355 A 26.245 26.245 0 0 1 812.4 43.575 A 22.95 22.95 0 0 1 817.736 39.562 A 29.289 29.289 0 0 1 821.175 37.95 Q 826.5 35.85 833.85 35.85 Q 837.33 35.85 841.642 36.792 A 55.467 55.467 0 0 1 843.075 37.125 Q 848.25 38.4 851.85 40.95 L 851.85 36.6 L 863.25 36.6 L 863.25 63.15 L 853.5 63.15 A 23.061 23.061 0 0 0 852.015 57.995 A 18.85 18.85 0 0 0 849.825 54.15 Q 847.05 50.4 842.7 48.375 A 21.738 21.738 0 0 0 835.745 46.493 A 26.745 26.745 0 0 0 832.95 46.35 A 13.44 13.44 0 0 0 827.352 47.516 A 13.109 13.109 0 0 0 826.125 48.15 A 5.951 5.951 0 0 0 823.242 52.284 A 9.943 9.943 0 0 0 823.05 54.3 Q 823.05 57.75 825.45 59.775 A 14.391 14.391 0 0 0 827.795 61.363 Q 829.622 62.37 832.05 63.15 Q 836.25 64.5 841.35 66.3 A 80.89 80.89 0 0 1 849.306 69.406 A 63.372 63.372 0 0 1 854.925 72.3 A 32.595 32.595 0 0 1 860.522 76.368 A 26.432 26.432 0 0 1 864.3 80.625 A 18.511 18.511 0 0 1 867.396 88.257 A 25.036 25.036 0 0 1 867.75 92.55 A 25.672 25.672 0 0 1 867.131 98.337 A 18.35 18.35 0 0 1 863.85 105.45 Q 859.95 110.55 853.725 113.1 Q 847.5 115.65 840.45 115.65 Q 834 115.65 827.85 114 A 42.479 42.479 0 0 1 823.941 112.759 Q 822.04 112.046 820.497 111.214 A 18.766 18.766 0 0 1 818.25 109.8 Z M 528.15 151.5 L 488.85 151.5 L 488.85 141.75 A 16.905 16.905 0 0 0 491.001 141.623 Q 493.308 141.326 494.636 140.334 A 4.641 4.641 0 0 0 494.925 140.1 A 6.825 6.825 0 0 0 496.705 137.57 Q 497.093 136.644 497.298 135.525 A 12.22 12.22 0 0 0 497.325 135.375 Q 497.833 132.397 497.849 128.645 A 57.359 57.359 0 0 0 497.85 128.4 L 497.85 64.95 Q 497.85 62.25 498 58.875 Q 498.15 55.5 498.45 52.2 A 107.958 107.958 0 0 1 496.523 52.302 Q 494.813 52.378 492.75 52.425 A 159.522 159.522 0 0 0 491.203 52.467 Q 489.037 52.538 487.8 52.65 L 487.8 41.25 Q 492.898 41.25 496.781 40.858 A 49.788 49.788 0 0 0 499.575 40.5 A 62.868 62.868 0 0 0 502.338 40.002 Q 505.076 39.441 506.951 38.746 A 18.492 18.492 0 0 0 507.075 38.7 Q 509.231 37.884 510.346 37.159 A 5.267 5.267 0 0 0 510.9 36.75 L 518.25 36.75 Q 518.456 37.781 518.592 39.132 A 41.882 41.882 0 0 1 518.7 40.425 Q 518.834 42.371 518.968 43.656 A 44.484 44.484 0 0 0 519 43.95 Q 523.881 39.766 528.697 37.916 A 24.226 24.226 0 0 1 529.425 37.65 A 33.826 33.826 0 0 1 534.699 36.259 A 26.374 26.374 0 0 1 539.25 35.85 A 29.473 29.473 0 0 1 548.565 37.281 A 26.038 26.038 0 0 1 555.075 40.5 Q 561.9 45.15 565.725 53.7 A 42.41 42.41 0 0 1 568.765 63.949 Q 569.55 68.566 569.55 73.8 A 53.178 53.178 0 0 1 568.159 86.185 A 44.135 44.135 0 0 1 564.9 95.325 A 37.708 37.708 0 0 1 557.048 106.209 A 35.089 35.089 0 0 1 551.925 110.25 Q 543.6 115.65 532.35 115.65 A 34.145 34.145 0 0 1 528.506 115.444 A 25.386 25.386 0 0 1 525.075 114.825 A 64.256 64.256 0 0 1 520.448 113.461 A 56.013 56.013 0 0 1 519 112.95 L 519 127.35 A 157.33 157.33 0 0 1 518.995 128.508 Q 518.981 130.406 518.925 133.275 A 113.369 113.369 0 0 1 518.701 138.58 A 97.56 97.56 0 0 1 518.55 140.55 A 48.402 48.402 0 0 1 521.392 140.284 A 61.901 61.901 0 0 1 523.8 140.175 A 342.636 342.636 0 0 1 525.141 140.142 Q 526.436 140.113 527.373 140.104 A 80.874 80.874 0 0 1 528.15 140.1 L 528.15 151.5 Z M 968.7 113.7 L 955.65 113.7 L 931.95 61.65 A 165.095 165.095 0 0 1 931.186 59.887 Q 930.461 58.186 929.995 56.963 A 35.394 35.394 0 0 1 929.625 55.95 A 28.043 28.043 0 0 1 929.182 54.561 Q 928.987 53.885 928.858 53.287 A 13.255 13.255 0 0 1 928.725 52.575 A 30.404 30.404 0 0 0 928.485 51.256 Q 928.303 50.363 928.05 49.35 L 922.5 49.65 L 922.5 38.25 L 957.6 38.25 L 957.6 47.85 A 9.747 9.747 0 0 0 956.156 48.019 Q 954.312 48.388 953.505 49.496 A 2.959 2.959 0 0 0 953.4 49.65 Q 952.423 51.185 952.615 53.565 A 10.856 10.856 0 0 0 952.65 53.925 Q 952.95 56.55 954 59.55 L 961.8 78.75 Q 963 81.6 964.2 84.6 L 966.6 90.6 L 966.75 90.6 Q 967.95 87.45 969.075 84.3 Q 970.2 81.15 971.25 78 L 977.7 59.7 A 89.451 89.451 0 0 1 978.522 57.503 Q 978.96 56.379 979.372 55.432 A 35.753 35.753 0 0 1 980.175 53.701 A 104.627 104.627 0 0 1 981.989 50.241 A 119.716 119.716 0 0 1 982.65 49.05 L 973.35 49.65 L 973.35 38.25 L 1001.85 38.25 L 1001.85 47.85 A 9.361 9.361 0 0 0 997.553 49.841 A 13.208 13.208 0 0 0 995.7 51.675 Q 993 54.9 991.05 58.875 A 137.275 137.275 0 0 0 989.693 61.719 Q 989.041 63.129 988.504 64.39 A 70.851 70.851 0 0 0 987.9 65.85 L 968.7 113.7 Z M 264.15 72.9 L 214.95 73.8 A 55.789 55.789 0 0 0 215.456 81.488 A 42.391 42.391 0 0 0 216.975 88.35 A 23.196 23.196 0 0 0 219.604 94.045 A 19.041 19.041 0 0 0 223.65 98.55 A 16.057 16.057 0 0 0 229.678 101.53 Q 232.566 102.3 236.1 102.3 Q 238.678 102.3 241.866 101.525 A 37.414 37.414 0 0 0 242.925 101.25 A 26.862 26.862 0 0 0 247.52 99.501 A 34.663 34.663 0 0 0 250.725 97.725 A 28.196 28.196 0 0 0 255.489 93.957 A 35.61 35.61 0 0 0 258.15 91.05 L 264.9 97.35 A 54.038 54.038 0 0 1 260.21 103.151 Q 257.525 106.016 254.674 108.07 A 31.673 31.673 0 0 1 253.35 108.975 A 42.634 42.634 0 0 1 247.028 112.376 A 33.284 33.284 0 0 1 241.125 114.3 Q 235.05 115.65 229.95 115.65 A 41.787 41.787 0 0 1 219.11 114.294 A 34.793 34.793 0 0 1 210.6 110.775 Q 202.2 105.9 197.55 96.975 A 40.145 40.145 0 0 1 193.667 85.24 A 54.38 54.38 0 0 1 192.9 75.9 Q 192.9 65.4 197.55 56.25 Q 202.2 47.1 210.675 41.475 Q 219.15 35.85 230.4 35.85 Q 236.7 35.85 242.7 37.575 Q 248.7 39.3 253.575 43.5 A 26.047 26.047 0 0 1 258.677 49.545 A 35.279 35.279 0 0 1 261.375 54.9 A 34.687 34.687 0 0 1 263.277 61.516 Q 264.238 66.595 264.15 72.9 Z M 722.25 72.9 L 673.05 73.8 A 55.789 55.789 0 0 0 673.556 81.488 A 42.391 42.391 0 0 0 675.075 88.35 A 23.196 23.196 0 0 0 677.704 94.045 A 19.041 19.041 0 0 0 681.75 98.55 A 16.057 16.057 0 0 0 687.778 101.53 Q 690.666 102.3 694.2 102.3 Q 696.778 102.3 699.966 101.525 A 37.414 37.414 0 0 0 701.025 101.25 A 26.862 26.862 0 0 0 705.62 99.501 A 34.663 34.663 0 0 0 708.825 97.725 A 28.196 28.196 0 0 0 713.589 93.957 A 35.61 35.61 0 0 0 716.25 91.05 L 723 97.35 A 54.038 54.038 0 0 1 718.31 103.151 Q 715.625 106.016 712.774 108.07 A 31.673 31.673 0 0 1 711.45 108.975 A 42.634 42.634 0 0 1 705.128 112.376 A 33.284 33.284 0 0 1 699.225 114.3 Q 693.15 115.65 688.05 115.65 A 41.787 41.787 0 0 1 677.21 114.294 A 34.793 34.793 0 0 1 668.7 110.775 Q 660.3 105.9 655.65 96.975 A 40.145 40.145 0 0 1 651.767 85.24 A 54.38 54.38 0 0 1 651 75.9 Q 651 65.4 655.65 56.25 Q 660.3 47.1 668.775 41.475 Q 677.25 35.85 688.5 35.85 Q 694.8 35.85 700.8 37.575 Q 706.8 39.3 711.675 43.5 A 26.047 26.047 0 0 1 716.777 49.545 A 35.279 35.279 0 0 1 719.475 54.9 A 34.687 34.687 0 0 1 721.377 61.516 Q 722.338 66.595 722.25 72.9 Z M 1078.2 72.9 L 1029 73.8 A 55.789 55.789 0 0 0 1029.506 81.488 A 42.391 42.391 0 0 0 1031.025 88.35 A 23.196 23.196 0 0 0 1033.654 94.045 A 19.041 19.041 0 0 0 1037.7 98.55 A 16.057 16.057 0 0 0 1043.728 101.53 Q 1046.616 102.3 1050.15 102.3 Q 1052.728 102.3 1055.916 101.525 A 37.414 37.414 0 0 0 1056.975 101.25 A 26.862 26.862 0 0 0 1061.57 99.501 A 34.663 34.663 0 0 0 1064.775 97.725 A 28.196 28.196 0 0 0 1069.539 93.957 A 35.61 35.61 0 0 0 1072.2 91.05 L 1078.95 97.35 A 54.038 54.038 0 0 1 1074.26 103.151 Q 1071.575 106.016 1068.724 108.07 A 31.673 31.673 0 0 1 1067.4 108.975 A 42.634 42.634 0 0 1 1061.078 112.376 A 33.284 33.284 0 0 1 1055.175 114.3 Q 1049.1 115.65 1044 115.65 A 41.787 41.787 0 0 1 1033.16 114.294 A 34.793 34.793 0 0 1 1024.65 110.775 Q 1016.25 105.9 1011.6 96.975 A 40.145 40.145 0 0 1 1007.717 85.24 A 54.38 54.38 0 0 1 1006.95 75.9 Q 1006.95 65.4 1011.6 56.25 Q 1016.25 47.1 1024.725 41.475 Q 1033.2 35.85 1044.45 35.85 Q 1050.75 35.85 1056.75 37.575 Q 1062.75 39.3 1067.625 43.5 A 26.047 26.047 0 0 1 1072.727 49.545 A 35.279 35.279 0 0 1 1075.425 54.9 A 34.687 34.687 0 0 1 1077.327 61.516 Q 1078.288 66.595 1078.2 72.9 Z M 1173 8.25 L 1173 18.15 Q 1169.7 18.3 1167.3 19.05 A 5.712 5.712 0 0 0 1164.26 21.332 A 8.142 8.142 0 0 0 1163.625 22.425 A 9.217 9.217 0 0 0 1163.009 24.18 Q 1162.35 26.78 1162.35 31.2 L 1162.35 88.65 Q 1162.35 92.7 1162.2 96.45 Q 1162.076 99.541 1161.851 101.409 A 23.109 23.109 0 0 1 1161.75 102.15 Q 1163.381 101.946 1165.602 101.846 A 90.711 90.711 0 0 1 1167.825 101.775 A 699.908 699.908 0 0 1 1169.527 101.742 Q 1171.627 101.704 1172.749 101.7 A 70.888 70.888 0 0 1 1173 101.7 L 1173 113.25 L 1129.95 113.25 L 1129.95 103.35 Q 1132.591 103.235 1134.573 102.769 A 14.797 14.797 0 0 0 1135.725 102.45 A 5.477 5.477 0 0 0 1138.419 100.505 A 8.207 8.207 0 0 0 1139.325 99 Q 1140.6 96.3 1140.6 90.3 L 1140.6 32.85 A 134.067 134.067 0 0 1 1140.727 26.944 A 119.731 119.731 0 0 1 1140.825 25.05 A 711.168 711.168 0 0 1 1140.933 23.287 Q 1141.039 21.586 1141.126 20.363 A 164.023 164.023 0 0 1 1141.2 19.35 A 92.46 92.46 0 0 1 1139.925 19.42 Q 1137.965 19.516 1135.373 19.571 A 255.463 255.463 0 0 1 1135.2 19.575 A 181.584 181.584 0 0 0 1133.522 19.617 Q 1131.188 19.688 1129.95 19.8 L 1129.95 8.25 L 1173 8.25 Z M 580.5 113.25 L 580.5 103.5 A 16.944 16.944 0 0 0 582.562 103.384 Q 585.178 103.062 586.5 101.85 A 6.832 6.832 0 0 0 588.138 99.504 Q 588.542 98.579 588.765 97.451 A 12.613 12.613 0 0 0 588.825 97.125 Q 589.333 94.147 589.349 90.395 A 57.359 57.359 0 0 0 589.35 90.15 L 589.35 64.95 Q 589.35 62.25 589.5 58.875 Q 589.65 55.5 589.95 52.2 A 110.151 110.151 0 0 1 588.034 52.302 Q 586.341 52.378 584.325 52.425 A 154.275 154.275 0 0 0 582.811 52.467 Q 581.351 52.516 580.31 52.584 A 34.524 34.524 0 0 0 579.45 52.65 L 579.45 41.25 L 585.45 41.25 A 39.752 39.752 0 0 0 591.888 40.749 A 32.39 32.39 0 0 0 596.175 39.75 A 41.256 41.256 0 0 0 598.338 39.023 Q 601.361 37.906 602.511 36.789 A 3.853 3.853 0 0 0 602.55 36.75 L 609.9 36.75 A 12.018 12.018 0 0 1 610.032 37.597 Q 610.235 39.217 610.35 42.375 Q 610.479 45.92 610.497 48.745 A 141.11 141.11 0 0 1 610.5 49.65 Q 613.799 45.618 616.799 42.88 A 39.873 39.873 0 0 1 618.15 41.7 A 32.263 32.263 0 0 1 621.509 39.234 A 23.461 23.461 0 0 1 625.275 37.275 Q 628.8 35.85 632.4 35.85 A 15.865 15.865 0 0 1 637.738 36.725 A 14.268 14.268 0 0 1 641.55 38.775 Q 645.45 41.7 645.45 48.3 A 10.853 10.853 0 0 1 645.08 51.051 A 14.371 14.371 0 0 1 644.4 53.025 Q 643.35 55.5 641.1 57.15 A 7.821 7.821 0 0 1 638.628 58.334 Q 637.549 58.647 636.26 58.75 A 16.508 16.508 0 0 1 634.95 58.8 A 11.01 11.01 0 0 1 631.335 58.165 A 15.014 15.014 0 0 1 628.8 57 A 6.401 6.401 0 0 1 626.136 53.988 Q 625.4 52.371 625.2 50.1 A 7.957 7.957 0 0 0 621.828 50.882 Q 620.76 51.377 619.693 52.185 A 15.078 15.078 0 0 0 619.2 52.575 Q 616.2 55.05 613.875 58.425 A 32.269 32.269 0 0 0 612.332 60.882 Q 611.597 62.186 611.102 63.401 A 16.465 16.465 0 0 0 610.65 64.65 L 610.65 89.1 Q 610.65 90.708 610.562 93.327 A 302.259 302.259 0 0 1 610.5 95.025 A 160.224 160.224 0 0 1 610.207 100.33 A 137.725 137.725 0 0 1 610.05 102.3 A 47.132 47.132 0 0 1 612.581 102.056 A 62.706 62.706 0 0 1 615.375 101.925 A 368.377 368.377 0 0 1 616.748 101.892 Q 618.073 101.863 619.019 101.854 A 82.147 82.147 0 0 1 619.8 101.85 L 619.8 113.25 L 580.5 113.25 Z M 878.7 113.25 L 878.7 103.5 A 16.944 16.944 0 0 0 880.762 103.384 Q 883.378 103.062 884.7 101.85 A 6.832 6.832 0 0 0 886.338 99.504 Q 886.742 98.579 886.965 97.451 A 12.613 12.613 0 0 0 887.025 97.125 Q 887.533 94.147 887.549 90.395 A 57.359 57.359 0 0 0 887.55 90.15 L 887.55 65.25 Q 887.55 62.55 887.7 59.025 A 143.888 143.888 0 0 1 888.077 53.029 A 130.92 130.92 0 0 1 888.15 52.2 A 110.151 110.151 0 0 1 886.234 52.302 Q 884.541 52.378 882.525 52.425 A 154.275 154.275 0 0 0 881.011 52.467 Q 879.551 52.516 878.51 52.584 A 34.524 34.524 0 0 0 877.65 52.65 L 877.65 41.25 A 106.434 106.434 0 0 0 882.53 41.145 Q 884.917 41.035 886.985 40.81 A 50.926 50.926 0 0 0 889.35 40.5 A 63.772 63.772 0 0 0 892.152 40.002 Q 894.827 39.46 896.667 38.795 A 18.396 18.396 0 0 0 896.925 38.7 Q 899.081 37.884 900.196 37.159 A 5.267 5.267 0 0 0 900.75 36.75 L 908.85 36.75 L 908.85 89.1 Q 908.85 90.708 908.762 93.327 A 302.259 302.259 0 0 1 908.7 95.025 A 160.224 160.224 0 0 1 908.407 100.33 A 137.725 137.725 0 0 1 908.25 102.3 A 47.132 47.132 0 0 1 910.781 102.056 A 62.706 62.706 0 0 1 913.575 101.925 A 368.377 368.377 0 0 1 914.948 101.892 Q 916.273 101.863 917.219 101.854 A 82.147 82.147 0 0 1 918 101.85 L 918 113.25 L 878.7 113.25 Z M 529.95 104.4 A 19.768 19.768 0 0 0 534.33 103.845 Q 537.596 103.026 539.901 101.013 A 12.337 12.337 0 0 0 540.675 100.275 A 19.637 19.637 0 0 0 544.548 94.339 A 26.655 26.655 0 0 0 546 89.85 A 58.309 58.309 0 0 0 547.394 79.891 A 68.66 68.66 0 0 0 547.5 76.05 A 51.711 51.711 0 0 0 546.572 66.122 A 46.248 46.248 0 0 0 545.85 63 A 27.491 27.491 0 0 0 544.033 58.064 A 20.22 20.22 0 0 0 540.6 53.025 A 11.543 11.543 0 0 0 532.777 49.388 Q 532.195 49.344 531.588 49.344 A 17.099 17.099 0 0 0 531.15 49.35 Q 527.4 49.5 524.25 51.225 Q 521.1 52.95 519 55.95 L 519 65.175 L 519 74.25 L 519 83.325 L 519 92.475 L 519 101.7 Q 520.65 102.75 523.65 103.65 Q 526.65 104.55 529.95 104.4 Z M 215.85 63.3 L 243.45 63.3 A 43.838 43.838 0 0 0 243.217 59.619 Q 243.016 57.765 242.651 56.211 A 17.459 17.459 0 0 0 241.725 53.325 A 14.345 14.345 0 0 0 240.354 50.808 Q 239.116 49.018 237.45 48 Q 234.75 46.35 231.15 46.35 A 14.79 14.79 0 0 0 226.515 47.042 A 11.927 11.927 0 0 0 220.8 51.075 Q 217.05 55.8 215.85 63.3 Z M 673.95 63.3 L 701.55 63.3 A 43.838 43.838 0 0 0 701.317 59.619 Q 701.116 57.765 700.751 56.211 A 17.459 17.459 0 0 0 699.825 53.325 A 14.345 14.345 0 0 0 698.454 50.808 Q 697.216 49.018 695.55 48 Q 692.85 46.35 689.25 46.35 A 14.79 14.79 0 0 0 684.615 47.042 A 11.927 11.927 0 0 0 678.9 51.075 Q 675.15 55.8 673.95 63.3 Z M 1029.9 63.3 L 1057.5 63.3 A 43.838 43.838 0 0 0 1057.267 59.619 Q 1057.066 57.765 1056.701 56.211 A 17.459 17.459 0 0 0 1055.775 53.325 A 14.345 14.345 0 0 0 1054.404 50.808 Q 1053.166 49.018 1051.5 48 Q 1048.8 46.35 1045.2 46.35 A 14.79 14.79 0 0 0 1040.565 47.042 A 11.927 11.927 0 0 0 1034.85 51.075 Q 1031.1 55.8 1029.9 63.3 Z M 893.064 24.109 A 11.798 11.798 0 0 0 897.45 24.9 Q 902.55 24.9 905.55 21.3 A 12.56 12.56 0 0 0 907.812 17.291 A 14.42 14.42 0 0 0 908.55 12.6 A 16.008 16.008 0 0 0 908.549 12.421 A 12.548 12.548 0 0 0 905.325 3.9 A 12.671 12.671 0 0 0 904.916 3.464 A 10.279 10.279 0 0 0 897.3 0.3 A 10.542 10.542 0 0 0 892.542 1.392 A 12.097 12.097 0 0 0 889.2 3.9 Q 885.75 7.5 885.75 12.6 Q 885.75 17.7 889.05 21.3 A 10.819 10.819 0 0 0 893.064 24.109 Z" vector-effect="non-scaling-stroke"/></g></svg>